<?xml version="1.0" standalone="no"?><!DOCTYPE svg PUBLIC "-//W3C//DTD SVG 1.1//EN" "http://www.w3.org/Graphics/SVG/1.1/DTD/svg11.dtd"><svg t="1643272884574" class="icon" viewBox="0 0 4096 1024" version="1.1" xmlns="http://www.w3.org/2000/svg" p-id="50451" xmlns:xlink="http://www.w3.org/1999/xlink" width="800" height="200"><defs><style type="text/css"></style></defs><path d="M2266.624 849.92c126.464-3.584 170.496-92.16 170.496-167.424v-460.8h16.896l16.896-68.096H2099.2l16.896 68.096h252.416V675.84c0 65.024-47.616 109.056-119.296 109.056l17.408 65.024z" fill="#ed722e" p-id="50452" data-spm-anchor-id="a313x.7781069.0.i15" class="selected"></path><path d="M2279.936 692.736c16.896-16.896 24.064-40.96 24.064-81.92v-327.68h-201.216V716.8h112.64c27.136 0 51.2-6.656 64.512-24.064z m-105.472-51.2V351.744h61.44V604.16c0 27.136-10.24 37.376-34.304 37.376h-27.136z m-355.328-494.592v699.904h68.096v-624.64h85.504l-51.2 218.624c20.48 16.896 57.856 61.44 57.856 139.776s-44.544 105.984-57.856 112.64v71.68c37.376-3.584 133.12-54.784 133.12-180.736 0-75.264-27.136-129.536-51.2-163.84l61.44-272.896c0-0.512-245.76-0.512-245.76-0.512zM2604.544 778.24l-13.824 68.096h621.056L3194.88 778.24h-259.584v-88.576H3174.4l-16.896-68.096h-221.696V532.48h160.256c75.264 0 116.224-37.376 116.224-116.224V143.36H2590.72v385.536h272.896V614.4H2641.92l-16.896 68.096h239.104v92.16h-259.584v3.584z m330.752-399.36h163.84L3082.24 310.784h-146.944V221.696h204.8v194.56c0 34.304-13.824 47.616-40.96 47.616h-163.84V378.88z m-269.312 85.504V221.696H2867.2V307.2h-146.944L2703.36 375.296h163.84v88.576h-201.216z m1218.56-317.44h-487.936L3379.2 221.696h525.824l-20.48-74.752zM3368.96 843.264l-3.584 6.656h477.696c27.136 0 47.616-6.656 61.44-24.064 13.824-20.48 10.24-44.544 3.584-57.856-6.656-34.304-34.304-157.184-40.96-174.08v-3.584h-71.68l3.584 6.656c3.584 16.896 34.304 143.36 40.96 184.32h-382.464c16.896-81.92 47.616-218.624 65.024-286.72h430.08l-16.896-68.096H3348.48l-16.896 68.096H3450.88c-13.824 61.952-57.856 236.032-81.92 348.672zM426.496 747.52c-30.72-6.656-51.2-30.72-51.2-65.024V337.92c3.584-30.72 24.064-54.784 51.2-61.44L747.52 208.384l34.304-136.704H409.6c-133.12-3.584-239.104 102.4-239.104 231.936v409.6c0 129.536 109.056 239.104 239.104 239.104h372.224l-34.304-136.704L426.496 747.52zM1361.92 68.096h-375.296l34.304 136.704L1341.44 272.896c30.72 6.656 51.2 30.72 51.2 61.44v344.576c-3.584 30.72-24.064 54.784-51.2 61.44L1020.416 808.96l-34.304 136.704H1361.92c129.536 0 239.104-105.984 239.104-239.104V296.96c-3.584-122.88-109.568-228.864-239.104-228.864z" fill="#ed722e" p-id="50453" data-spm-anchor-id="a313x.7781069.0.i12" class="selected"></path><path d="M747.52 491.52h272.896v34.304H747.52V491.52z" fill="#ed722e" p-id="50454" data-spm-anchor-id="a313x.7781069.0.i13" class="selected"></path></svg>