<?xml version="1.0" encoding="UTF-8"?>
<svg width="70px" height="70px" viewBox="0 0 70 70" version="1.1" xmlns="http://www.w3.org/2000/svg" xmlns:xlink="http://www.w3.org/1999/xlink">
    <title>bilibili</title>
    <g id="页面-1" stroke="none" stroke-width="1" fill="none" fill-rule="evenodd">
        <g id="图标" transform="translate(-294.000000, -712.000000)">
            <g id="bilibili" transform="translate(294.000000, 712.000000)">
                <rect id="矩形" x="0" y="0" width="70" height="70"></rect>
                <g id="bilibili-icon" transform="translate(7.000000, 23.000000)" fill="#3F90E1" fill-rule="nonzero">
                    <path d="M43.7904307,18.3080853 C43.4118279,17.9292864 42.9070588,17.6767711 42.5284561,17.4242558 C41.2664815,16.7929416 39.8783146,16.2878851 38.4901477,16.0353698 C37.1019808,15.7828285 35.5875958,15.5303132 34.0732366,15.6565709 C33.820852,15.6565709 33.6946597,15.6565709 33.4422752,15.7828285 C32.811262,10.4797998 32.5588774,5.30302873 32.811262,0 C31.1707105,0.505056521 29.7825437,1.26262836 28.2681586,1.76768488 C29.7825437,9.46971266 30.6659155,17.1717146 31.2969028,25 L31.8016978,25 C32.9374543,25 33.9470443,25 35.0828007,24.7474847 C36.4709935,24.6212011 37.8591604,24.2424282 39.2473273,23.8636293 C40.6354942,23.3585987 41.8974688,22.8535163 42.9070588,21.8434291 C43.5380202,21.3383985 44.0428152,20.8333161 44.1690075,20.0757701 C44.5476103,19.444456 44.421418,18.8131418 43.7904307,18.3080853 Z M36.0923908,22.6010009 C35.8400062,21.0858573 35.7138139,19.6969713 35.4614294,18.3080853 C36.9757885,18.6868841 38.3639554,19.3181983 39.7521223,19.8232289 C38.61634,20.833342 37.3543654,21.7171715 36.0923908,22.6010009 L36.0923908,22.6010009 Z M15.3960539,18.1818276 C14.8912589,17.8030287 14.512682,17.5505134 14.007887,17.2979722 C12.7459124,16.6666839 11.3577455,16.2878592 9.96957865,16.0353698 C8.58141176,15.7828285 7.19324488,15.6565709 5.80507799,15.7828285 C5.55266754,15.7828285 5.42647526,15.7828285 5.17409069,15.9090862 C4.54310339,10.6060575 4.16450066,5.30302873 4.41688522,0 C2.90252605,0.378798864 1.38816689,1.26262836 0,1.76768488 C1.51435917,9.46971266 2.39773104,17.1717146 3.02871834,25 L3.53351336,25 C5.67885983,25 7.69801401,24.7474847 9.7171682,24.2424282 C11.3577197,23.8636293 12.998297,23.1060575 14.3864898,22.0959703 C15.0174512,21.5909138 15.6484385,20.9595996 15.9008489,20.2020278 C16.2794258,19.444456 16.0270412,18.8131418 15.3960539,18.1818017 L15.3960539,18.1818276 Z M7.69801401,22.6009751 C7.44562944,21.0858314 7.31943716,19.6969454 7.06705259,18.3080594 C7.57182173,18.3080594 10.8529505,19.5706877 11.2315532,19.823203 C10.2219632,20.8333161 8.95998861,21.7171456 7.69801401,22.6009751 Z M23.2202861,17.8030028 C23.0940938,16.6666321 23.0940938,15.656545 22.9678756,14.5202002 C22.8416833,13.2575459 22.7154911,11.8686858 22.7154911,10.6060316 C22.5892988,9.46968677 22.5892988,8.20705841 22.4631065,7.07068772 C22.3368883,5.80805936 22.3368883,4.54543101 22.210696,3.28280265 C22.210696,2.90402968 22.210696,2.90402968 21.8321192,2.90402968 L21.7059269,2.90402968 C21.2011319,2.90402968 20.6963369,2.90402968 20.3177341,3.03028734 C19.9391573,3.03028734 19.5605546,3.15654499 19.1819777,3.15654499 C20.3177341,9.46968677 20.9487214,15.9090603 21.5797087,22.3484597 C22.3368883,22.3484597 23.0940938,22.4747174 23.8512734,22.4747174 L23.8512734,21.9696868 C23.3464784,20.4545431 23.2202861,19.1919147 23.2202861,17.8030287 L23.2202861,17.8030028 Z M51.6146628,18.8131159 C51.4884447,17.5504875 51.3622524,16.4141168 51.3622524,15.1514885 C51.2360601,13.8888601 51.1098678,12.4999741 50.9836755,11.2373458 C50.8574833,9.9747174 50.8574833,8.83837259 50.7312651,7.57571834 C50.6050728,6.06057467 50.4788805,4.67168866 50.4788805,3.15654499 C50.4788805,2.77777202 50.4788805,2.77777202 50.1002778,2.77777202 L48.9645214,2.77777202 C48.4597263,2.77777202 47.9549313,2.90402968 47.3239699,3.03028734 C48.4597263,9.34342911 49.0907136,15.7828027 49.7217009,22.2221762 C50.4788805,22.2221762 51.2360601,22.3484597 51.9932397,22.3484597 L51.9932397,22.2222021 L51.6146628,18.8131159 L51.6146628,18.8131159 Z M47.7025468,16.1616015 C47.5763545,15.1514885 47.4501363,14.0151178 47.1977517,13.0050306 C47.1977517,12.7525153 47.0715595,12.7525153 46.9453672,12.7525153 L45.6833926,12.7525153 C45.1785976,12.878773 44.6738025,12.878773 44.0428411,13.0050306 C44.6738025,16.4141168 45.4309821,19.823203 46.0619694,23.2322892 C46.819149,23.1060316 47.5763545,23.1060316 48.3335341,22.9797739 C48.2073418,22.0959444 48.2073418,21.3383726 48.0811236,20.5807749 C47.9549313,19.1918889 47.828739,17.6767452 47.7025468,16.1616015 Z M19.30817,16.1616015 C19.1819777,15.1514885 19.0557854,14.1413754 18.9295673,13.0050306 C18.9295673,12.7525153 18.803375,12.7525153 18.5509904,12.7525153 C17.9200031,12.7525153 17.2890158,12.878773 16.7842208,12.878773 C16.4056439,12.878773 16.1532594,13.0050306 15.7746308,13.1312883 C16.4056439,16.5403745 17.1628235,19.9494607 17.7938108,23.3585728 C18.5509904,23.2322892 19.30817,23.2322892 20.0653496,23.1060316 L20.0653496,22.9797998 C19.9391573,22.0959703 19.9391573,21.0858573 19.812965,20.2020278 C19.5605546,18.8131418 19.4343623,17.4242558 19.30817,16.1616274 L19.30817,16.1616015 Z M27.3847867,13.5100871 C27.3847867,13.1312883 27.3847867,13.1312883 27.0062099,13.1312883 C26.1228121,13.0050306 25.2394403,13.1312883 24.2298502,13.1312883 C24.608453,16.6666321 24.8608375,20.0757183 25.2394403,23.4848304 L27.510979,23.4848304 L27.510979,23.1060316 C27.510979,19.9494607 27.510979,16.7928898 27.3847867,13.5100871 L27.3847867,13.5100871 Z M55.9053817,19.6969454 C55.9053817,17.6767452 55.7791635,15.656545 55.7791635,13.5100871 C55.7791635,13.1312883 55.7791635,13.1312883 55.4005608,13.1312883 C54.5171889,13.0050306 53.5076247,13.1312883 52.624227,13.1312883 C53.0028297,16.6666321 53.2552143,20.0757183 53.633817,23.4848304 L55.9053558,23.4848304 L55.9053558,23.2322892 C56.0315481,22.0959444 56.0315481,20.9595737 55.9053558,19.6969454 L55.9053817,19.6969454 Z M16.7841949,8.96465614 C16.9103872,9.72222798 17.0365795,10.6060575 17.0365795,11.3636293 L17.1627976,11.4899129 C17.5413745,11.4899129 18.0461695,11.4899129 18.4247722,11.3636293 C18.4247722,10.8585987 18.2985541,10.4797998 18.2985541,10.1010268 C18.1723618,9.21717146 18.1723618,8.45962552 18.0461695,7.57577013 L17.9199772,7.44951247 C17.5413745,7.32322892 17.0365795,7.32322892 16.5318103,7.44951247 L16.5318103,7.70202779 C16.7841949,8.20708431 16.7841949,8.58585728 16.7841949,8.96465614 L16.7841949,8.96465614 Z M45.6833667,11.4899129 C46.0619435,11.4899129 46.5667386,11.4899129 46.9453413,11.3636293 C46.9453413,10.8585987 46.8191231,10.4797998 46.8191231,9.97474329 C46.6929308,9.21717146 46.6929308,8.33334196 46.5667386,7.57577013 C46.5667386,7.57577013 46.5667386,7.44951247 46.4405463,7.44951247 C45.9357513,7.32322892 45.5571744,7.32322892 45.0523794,7.44951247 L45.0523794,7.57577013 C45.1785717,8.83839849 45.304764,10.1010268 45.5571744,11.3636293 C45.5571744,11.4899129 45.6833667,11.4899129 45.6833667,11.4899129 L45.6833667,11.4899129 Z M25.9966198,11.6161705 C25.9966198,11.7424282 25.9966198,11.7424282 26.1228121,11.7424282 L27.3847867,11.7424282 L27.3847867,8.20708431 C27.3847867,7.9545431 27.3847867,7.9545431 27.1324022,7.82828544 C26.7537994,7.82828544 26.3752226,7.82828544 25.9966198,7.70202779 L25.9966198,11.6161705 L25.9966198,11.6161705 Z M54.5171889,11.8686858 L55.7791635,11.8686858 L55.7791635,8.08082665 L55.6529712,7.9545431 C55.1481762,7.9545431 54.7695735,7.82828544 54.2648043,7.82828544 L54.2648043,7.9545431 C54.2648043,9.21717146 54.2648043,10.4797998 54.3909966,11.7424282 C54.3909966,11.8686858 54.5171889,11.8686858 54.5171889,11.8686858 L54.5171889,11.8686858 Z M16.5318362,11.6161705 C16.6580285,11.6161705 16.6580285,11.4899129 16.6580285,11.3636293 C16.6580285,10.9848563 16.6580285,10.6060575 16.5318362,10.3535422 C16.4056439,9.59597032 16.2794258,8.71214083 16.1532335,7.9545431 C16.1532335,7.82828544 16.1532335,7.70202779 15.9008489,7.82828544 C15.5222462,7.82828544 15.1436693,7.9545431 14.7650666,7.9545431 C15.0174512,9.21717146 15.2698616,10.6060575 15.5222462,11.8686858 C15.9008489,11.7424282 16.1532335,11.6161705 16.5318362,11.6161705 Z M44.7999948,11.6161705 C44.926213,11.6161705 45.0524053,11.4899129 45.0524053,11.3636293 C44.926213,10.6060575 44.926213,9.97474329 44.7999948,9.21717146 C44.7999948,8.83839849 44.6738025,8.33334196 44.5476103,7.9545431 C44.5476103,7.82828544 44.5476103,7.70202779 44.421418,7.70202779 C44.0428152,7.70202779 43.6642384,7.82828544 43.1594434,7.82828544 C43.4118279,9.0909138 43.6642384,10.4797998 43.916623,11.7424282 C44.1690075,11.7424282 44.5476103,11.7424282 44.7999948,11.6161705 L44.7999948,11.6161705 Z M53.7600093,11.8686858 L53.8862016,11.7424282 L53.8862016,8.20708431 C53.7600093,8.08082665 53.7600093,7.9545431 53.633817,7.9545431 C53.2552143,7.9545431 52.7504193,7.9545431 52.3718424,8.08082665 C52.4980347,9.34342911 52.4980347,10.732341 52.624227,11.9949435 C53.0028297,11.8686858 53.3814066,11.8686858 53.7600093,11.8686858 L53.7600093,11.8686858 Z M25.3656325,11.8686858 L25.4918248,11.7424282 L25.4918248,8.20708431 L25.3656325,8.08082665 C24.9870298,8.08082665 24.4822607,8.08082665 24.1036579,8.20708431 C24.2298502,9.46971266 24.2298502,10.8585987 24.3560684,12.121227 C24.7346452,11.8686858 24.9870298,11.8686858 25.3656325,11.8686858 L25.3656325,11.8686858 Z" id="形状"></path>
                </g>
            </g>
        </g>
    </g>
</svg>