<?xml version="1.0" encoding="UTF-8"?>
<svg width="70px" height="70px" viewBox="0 0 70 70" version="1.1" xmlns="http://www.w3.org/2000/svg" xmlns:xlink="http://www.w3.org/1999/xlink">
    <title>douyu</title>
    <g id="页面-1" stroke="none" stroke-width="1" fill="none" fill-rule="evenodd">
        <g id="图标" transform="translate(-294.000000, -797.000000)">
            <g id="douyu" transform="translate(294.000000, 797.000000)">
                <rect id="矩形" x="0" y="0" width="70" height="70"></rect>
                <g transform="translate(11.000000, 12.000000)" fill-rule="nonzero">
                    <path d="M39.9865394,11.386409 C43.1166979,8.42624657 48,7.74748322 48,7.74748321 C48,7.74748321 47.7003718,4.10855744 43.0210718,2.58133989 C36.295375,0.469631675 32.5723352,3.52406678 32.5723352,3.52406678 C32.5723352,3.52406678 24.1636204,-2.81105788 15.7612807,1.50663125 C7.35894099,5.82432037 1.41737754,17.627261 1.41737754,17.627261 C4.64953706,21.5615745 12.9562508,21.6558472 12.9562508,21.5929987 C11.9681152,21.8192532 10.4189737,22.9882345 10.5145997,22.9882345 C6.98918704,21.9826592 -1.11989956,26.6271603 0.129613788,29.8764256 C1.41737754,33.1256909 12.8223743,32.2835216 12.8223743,32.2835216 C12.8223743,32.2835216 15.1620243,34.0055693 14.6711441,34.0055693 C8.53832859,33.5153514 7.55019303,36.7017682 7.55019303,36.8023258 C9.09933458,36.8023258 18.4961849,39.3036944 18.4961849,39.3036944 C18.4961849,39.3036944 20.0453265,45.9027826 21.5307173,45.9970553 C22.9842329,46.0976128 24.2656215,43.5899593 24.2656215,43.4956866 C26.1143913,41.6730813 25.617136,37.8393253 25.4513842,37.6444951 C26.3438937,37.1542771 30.4303124,35.9224473 37.5512634,28.5440383 C44.6722145,21.1656292 40.2797926,11.5812392 39.9865394,11.386409 L39.9865394,11.386409 Z M0.295365559,29.4239167 C0.295365559,25.4896032 9.46271346,22.5985741 9.4945888,23.3778949 C8.30882614,26.1432271 9.4945888,28.0601051 9.4945888,28.0601051 L7.64581905,29.6878802 L10.1830962,29.7884378 C10.1830962,29.7884378 11.6366117,31.8058733 11.7322377,31.900146 C5.23604332,32.4783518 0.461117329,31.2088129 0.295365559,29.4239167 Z M9.69221591,28.7388685 L9.69221591,29.1599532 L9.29696169,29.1599532 L9.69221591,28.7388685 Z M19.7456983,34.6214842 C19.6436972,34.916872 18.7256874,35.2059749 18.7256874,35.2059749 L18.5280603,34.6214842 C18.5216852,34.6214842 19.8413243,34.3638056 19.7456983,34.6214842 Z" id="形状" fill="#999999"></path>
                    <path d="M16.3775794,3 C13.9612581,3 12,4.76512166 12,6.98395418 C12,9.20278669 13.9548488,10.9679084 16.3775794,10.9679084 C18.80031,10.9679084 20.7551588,9.20278669 20.7551588,6.98395418 C20.7551588,4.76512166 18.7939007,3 16.3775794,3 L16.3775794,3 Z M16.3775794,9.81187797 C15.8135575,9.81187797 15.2174888,9.65028233 14.7560163,9.32709103 C15.3200383,9.32709103 15.7815108,8.8795954 15.7815107,8.33265629 C15.7815107,7.78571719 15.3200383,7.33822155 14.7560163,7.33822155 C14.2240411,7.33822155 13.7946153,7.72356502 13.7305219,8.20835195 C13.5318323,7.82300849 13.4292829,7.40658894 13.4292829,6.95287809 C13.4292829,5.38042816 14.7560163,4.1249543 16.3775794,4.1249543 L16.6403623,4.1249543 C16.0763404,4.4170695 15.6789613,4.9950847 15.6789613,5.66632815 C15.6789613,6.6296868 16.5057662,7.43144981 17.4992139,7.43144981 C18.2939721,7.43144981 18.9925902,6.94666288 19.2233265,6.24434334 C19.2874199,6.46809116 19.3258759,6.72913028 19.3258759,6.95287809 C19.3258759,8.56261933 17.9991425,9.81187797 16.3775794,9.81187797 L16.3775794,9.81187797 Z M15.2815822,19.6132754 C15.2815822,19.6132754 16.6403623,20.4834058 19.0246369,19.6132754 L18.1273293,18.3950928 C18.1337386,18.3950928 15.2815822,19.6132754 15.2815822,19.6132754 Z M20.985895,16.5926799 C20.2872769,17.2701385 18.5311177,18.1029776 18.5311177,18.1029776 C18.5311177,18.1029776 21.0820351,19.5200471 21.6781038,19.1284884 C22.2741724,18.7804363 21.1845846,16.6921233 20.985895,16.5926799 L20.985895,16.5926799 Z M23.1394334,14.9891538 C22.5433647,15.5360929 21.2807247,16.4062233 21.2807247,16.4062233 L23.6329526,18.1091928 C24.1328811,17.5249624 23.5368125,14.9891538 23.1394334,14.9891538 Z M24.2290212,13.4788561 C24.1264718,13.9263517 23.5688592,14.6038104 23.3701696,14.7343299 C23.9021449,14.9891538 24.7930431,15.9214364 24.7930431,15.9214364 C25.3570651,15.1507495 24.6328096,13.6093756 24.2290212,13.4788561 Z" id="形状" fill="#FFFFFF"></path>
                    <path d="M35.6719247,8.87700873 C36.0577424,8.77654969 38.248191,11.0871076 37.9557164,11.1812879 C41.6894356,7.05618866 45,7.1566477 45,7.05618866 C44.0354559,4.55727008 39.5612156,3.42082721 39.5612156,3.42082721 C32.8031838,2.19020399 31.9319826,5.24164728 31.7390738,5.33582763 C23.916932,-0.409173625 16.4868307,3.03154844 16.5801737,2.9310894 C21.6331404,4.06753227 20.2143271,8.19263153 20.2143271,8.19263153 C20.2143271,8.19263153 19.5360347,12.3177308 14.8751085,11.7338126 C10.2079595,11.1498945 10.9795948,5.88835234 10.9795948,5.88835234 C6.2813314,9.71835317 2,17.5792729 2,17.5792729 C2.4853835,18.3578305 7.72503618,20.1786505 9.4301013,20.2728309 C19.5360347,20.0781915 25.0681621,9.71835317 25.2610709,9.71835317 C27.4141823,13.2595343 26.8727931,16.9262892 24.6823444,18.8098961 C22.3487699,20.8253556 15.7214182,20.9509294 15.7214182,20.9509294 C16.6859624,23.4812414 23.4751085,22.4452576 23.4751085,22.4452576 C23.2510854,25.9173731 15.6218524,27.053816 15.3356006,27.053816 C23.2510854,30.5949971 29.8162084,23.3870611 29.9095514,23.286602 C29.4615051,26.7587175 24.5018813,28.9688164 24.4085384,28.9688164 C24.9872648,31.7314399 19.6480463,36.4341787 17.6505065,36.0448999 C12.7904486,33.9352601 9.44254703,36.1453589 9.44254703,36.1453589 L13.9167873,37.3759822 C13.9167873,37.3759822 18.5839363,37.86572 18.7768452,39.7807204 C18.969754,41.6957208 20.5814761,44 20.7743849,44 C25.441534,40.5592779 23.0581766,37.5078346 23.0581766,37.5078346 C23.0581766,37.5078346 31.9382055,33.9666535 36.8978292,24.360258 C41.857453,14.7538625 35.2861071,8.97118908 35.6719247,8.87700873 Z M33.4192475,6.02020483 C31.9070912,5.63092605 33.0645441,4.85236851 34.2904486,4.19938476 C38.4722142,2.8055156 40.5319826,4.52587663 40.4386397,4.52587663 C35.6096961,2.51041718 33.4192475,6.02020483 33.4192475,6.02020483 Z" id="形状" fill="#D8D8D8"></path>
                    <path d="M13.6753177,26.4919708 C18.4003054,25.0858734 19.3328688,23.9185473 19.3328688,23.9185473 C19.3328688,23.9185473 14.9622551,21.0400273 12.6121955,21.0002321 C10.2683529,20.9670694 7.2406305,24.4955779 8.17319386,26.4190129 C11.1325283,33.2107284 16.7589939,34 16.7589939,34 C21.0363512,33.5887829 21.9005266,29.5429367 22,29.3373281 C16.8273819,29.4434487 13.836962,26.8036999 13.6753177,26.4919708 L13.6753177,26.4919708 Z M9.82072247,28.3092853 C10.3056554,26.9363506 13.2276873,24.2302765 13.2276873,24.2302765 C12.7116689,23.7129388 9.82072247,22.7180586 9.82072247,22.7180586 C10.4983852,22.4063295 13.7126202,23.7792641 13.7126202,23.7792641 C16.6035667,22.1012329 16.8957699,22.9236672 16.8957699,22.9236672 C14.9311697,23.4078422 9.82072247,28.3092853 9.82072247,28.3092853 L9.82072247,28.3092853 Z" id="形状" fill="#FFFFFF"></path>
                    <path d="M14.5252475,26.8028351 C19.3498257,25.3171497 20.3020451,24.0837505 20.3020451,24.0837505 C20.3020451,24.0837505 15.8393102,21.0423001 13.4397174,21.0002524 C11.0464726,20.9652126 8.8436718,24.5883229 9.00872316,25.9618811 C9.46578847,27.0130736 9.96094255,27.952139 10.4878373,28.7510453 C11.0782133,27.2653599 13.9348714,24.5462752 13.9348714,24.5462752 C13.4079767,23.9996551 10.4560966,22.9484625 10.4560966,22.9484625 C11.1480427,22.6190889 14.4300255,24.0697346 14.4300255,24.0697346 C17.3819056,22.2967232 17.6802677,23.165709 17.6802677,23.165709 C15.7758289,23.6702814 11.1163021,28.2044252 10.4941854,28.8211248 C13.5793762,33.3903083 17.6485271,34 17.6485271,34 C22.01604,33.5655071 22.8984299,30.0475161 23,29.8302696 C17.743749,29.921373 14.6902988,27.1322088 14.5252475,26.8028351 L14.5252475,26.8028351 Z" id="路径" fill="#FFFFFF"></path>
                    <path d="M39.9770409,11.3728773 C43.0984933,8.38554531 48,7.73912683 48,7.73912683 C48,7.73912683 47.7012052,4.10537634 43.0349199,2.54895126 C36.2961428,0.440246308 32.5834581,3.52171693 32.5834581,3.52171693 C32.5834581,3.52171693 24.166344,-2.81067382 15.74923,1.5071506 C7.33211597,5.82497502 1.41343534,17.6048536 1.41343534,17.6048536 C4.63660514,21.5335717 12.9202151,21.6277103 12.9202151,21.5963308 C11.9348279,21.8222635 10.389995,22.9895823 10.4853551,22.9895823 C6.96974777,21.9540575 -1.11678474,26.6233328 0.129253289,29.867977 C1.41343534,33.1126212 12.8184977,32.2716496 12.8184977,32.2716496 C12.8184977,32.2716496 15.1516403,33.9912483 14.6621254,33.9912483 C8.54636732,33.5393829 7.5609801,36.6836126 7.5609801,36.7840271 C9.13759965,36.7840271 18.5083142,39.2818384 18.5083142,39.2818384 C18.5083142,39.2818384 20.0849338,45.9029209 21.5344066,45.9970595 C23.0156661,46.097474 24.2617041,43.5933869 24.2617041,43.4992483 C26.1053318,41.6792351 25.6412462,37.8509314 25.4441687,37.6563783 C26.3341959,37.1668575 30.4092489,35.9367796 37.5421808,28.5374846 C44.6433261,21.175845 40.2758357,11.5674305 39.9770409,11.3728773 L39.9770409,11.3728773 Z M0.300901385,29.4161116 C0.300901385,25.4873935 9.44275182,22.5690965 9.4745385,23.3786885 C8.29207384,26.1714674 9.4745385,28.0856192 9.4745385,28.0856192 L7.63091081,29.7110793 L10.1611309,29.8114938 C10.1611309,29.8114938 11.6423904,31.8260602 11.7377504,31.9201988 C5.22783747,32.4975823 0.497978828,31.2047453 0.300901385,29.4161116 L0.300901385,29.4161116 Z M9.70340263,28.7383136 L9.70340263,29.1587994 L9.30924774,29.1587994 L9.70340263,28.7383136 Z M19.7607096,34.6439427 C19.6589922,34.9389103 18.7435357,35.2276021 18.7435357,35.2276021 L18.5464582,34.6439427 C18.5464582,34.6439427 19.8560696,34.348975 19.7607096,34.6439427 L19.7607096,34.6439427 Z" id="形状" fill="#000000"></path>
                    <path d="M16.3659091,3 C13.9560296,3 12,4.7951934 12,6.96799644 C12,9.14079948 13.9496373,10.9359929 16.3659091,10.9359929 C18.782181,10.9359929 20.7318183,9.14079948 20.7318183,6.96799644 C20.7318183,4.7951934 18.7757887,3 16.3659091,3 L16.3659091,3 Z M16.3659091,9.82173491 C15.7714296,9.82173491 15.2089113,9.66078654 14.748669,9.33888979 C15.3111873,9.33888979 15.7714296,8.8931866 15.7714296,8.34843826 C15.7714296,7.80368992 15.3111873,7.35798673 14.748669,7.35798673 C14.218112,7.35798673 13.789831,7.7417867 13.7259084,8.22463182 C13.5277486,7.84083185 13.4254725,7.42608027 13.4254725,6.97418676 C13.4254725,5.40803528 14.748669,4.12663861 16.3659091,4.12663861 L16.6663451,4.12663861 C16.1038268,4.41758375 15.707507,4.9932837 15.707507,5.66183849 C15.707507,6.6213384 16.5321077,7.41988995 17.522907,7.41988995 C18.3155465,7.41988995 19.0123021,6.90609322 19.2424232,6.23753844 C19.3063458,6.46039003 19.3446993,6.72038356 19.3446993,6.94323515 C19.3063458,8.54033824 17.9831493,9.82173491 16.3659091,9.82173491 L16.3659091,9.82173491 Z M15.2728338,19.6148244 C15.2728338,19.6148244 16.6599528,20.4814695 19.0059098,19.6148244 L18.1109944,18.4015213 C18.1173866,18.395331 15.2728338,19.6148244 15.2728338,19.6148244 Z M20.9939007,16.5753763 C20.2971451,17.2501214 18.5137063,18.0796245 18.5137063,18.0796245 C18.5137063,18.0796245 21.0897845,19.491018 21.6523028,19.1381696 C22.2467824,18.7481793 21.1920605,16.6682311 20.9939007,16.5753763 L20.9939007,16.5753763 Z M23.1416979,14.9720829 C22.5472183,15.5168312 21.2879444,16.3834763 21.2879444,16.3834763 L23.6339014,18.0796245 C24.1324972,17.5348762 23.5380176,14.9720829 23.1416979,14.9720829 L23.1416979,14.9720829 Z M24.2347732,13.4678346 C24.1324972,13.9135378 23.5763711,14.5882829 23.3782113,14.7182797 C23.9087683,14.9720829 24.7972915,15.9006312 24.7972915,15.9006312 C25.3534176,15.1330312 24.6310929,13.5978314 24.2347732,13.4678346 Z" id="形状" fill="#FFFFFF"></path>
                    <path d="M35.653524,8.8826335 C36.0385615,8.78247702 38.2245812,11.0860761 37.9326979,11.1799728 C41.6588677,7.06729726 45,7.16745375 45,7.06729726 C44.0374061,4.57590478 39.5722126,3.44288457 39.5722126,3.44288457 C32.7967938,2.21596767 31.9273541,5.25822081 31.7348354,5.35211751 C23.9285095,-0.406880204 16.4823801,3.0234793 16.5755344,2.92332282 C21.6182842,4.05634302 20.2023397,8.20031747 20.2023397,8.20031747 C20.2023397,8.20031747 19.5254188,12.312993 14.8739168,11.7308335 C10.2162045,11.1486739 10.9552282,5.90297816 10.9552282,5.90297816 C6.27267475,9.72770382 2,17.5586888 2,17.5586888 C2.48440208,18.3349015 7.71346043,20.1502377 9.45233969,20.2441344 C19.5378394,20.0500812 25.0898325,9.72144404 25.2512998,9.72144404 C27.4000578,13.25196 26.8597631,16.9389705 24.6737435,18.8169046 C22.3262565,20.826294 15.712305,20.9577494 15.712305,20.9577494 C16.6748989,23.4804408 23.4813692,22.447577 23.4813692,22.447577 C23.257799,25.8779365 15.6129405,27.0422556 15.3583189,27.0422556 C23.2888504,30.5727716 29.840699,23.386544 29.9400635,23.2863876 C29.4556615,26.7793449 24.5122761,28.9827875 24.4191219,28.9827875 C24.9966782,31.7683896 19.6682553,36.425666 17.6437031,36.0688586 C12.793472,33.9655725 9.45233969,36.1690151 9.45233969,36.1690151 L13.9485846,37.395932 C13.9485846,37.395932 18.6373484,37.8841948 18.7988157,39.7934278 C18.9913345,41.7026607 20.5997978,44 20.7923166,44 C25.4810803,40.5696405 23.0714905,37.4960885 23.0714905,37.4960885 C23.0714905,37.4960885 31.9335644,33.9655725 36.9142114,24.35681 C41.8948585,14.7480475 35.2684864,8.95149108 35.653524,8.8826335 L35.653524,8.8826335 Z M33.4054015,6.00313464 C31.8652513,5.61502828 33.0514154,4.83881554 34.2748411,4.18779841 C38.4792028,2.79812722 40.5348065,4.51330697 40.4416522,4.51330697 C35.6224726,2.50391755 33.4054015,6.00313464 33.4054015,6.00313464 L33.4054015,6.00313464 Z" id="形状" fill="#D8D8D8"></path>
                    <path d="M13.6496598,26.5110748 C18.3715784,25.1085553 19.3346012,23.9441994 19.3346012,23.9441994 C19.3346012,23.9441994 14.9357613,21.0730038 12.6182934,21.0002315 C10.2759733,20.9671532 7.21915232,24.4866834 8.18217519,26.4052243 C11.1395873,33.1796584 16.7623982,34 16.7623982,34 C21.0680424,33.5898292 21.9005912,29.5542776 22,29.3491922 C16.7996765,29.4484271 13.8111991,26.8153951 13.6496598,26.5110748 L13.6496598,26.5110748 Z M9.79756837,28.3237652 C10.2821863,26.954324 13.2023202,24.2154414 13.2023202,24.2154414 C12.686637,23.6994201 9.79756837,22.7070713 9.79756837,22.7070713 C10.4747909,22.3961354 13.7180034,23.7655767 13.7180034,23.7655767 C16.6443503,22.0918151 16.8990854,22.9121568 16.8990854,22.9121568 C14.9046961,23.4281781 9.79756837,28.3237652 9.79756837,28.3237652 L9.79756837,28.3237652 Z" id="形状" fill="#9A6E38"></path>
                    <path d="M14.5002374,26.8347295 C19.3030772,25.3498446 20.2826038,24.1171099 20.2826038,24.1171099 C20.2826038,24.1171099 15.8083793,21.0772982 13.451196,21.0002522 C11.0687347,20.9652314 8.84426151,24.5863896 9.00856919,25.9592077 C9.46357507,27.0098339 9.95649811,27.9483933 10.4810188,28.7468692 C11.0687347,27.2619842 13.9125215,24.5093436 13.9125215,24.5093436 C13.3880008,23.963018 10.4494211,22.9123919 10.4494211,22.9123919 C11.1382495,22.5831957 14.4370421,24.0330598 14.4370421,24.0330598 C17.4135389,22.2610036 17.6726395,23.1295213 17.6726395,23.1295213 C15.7767817,23.6338218 11.1382495,28.1655227 10.5189359,28.78189 C13.5902256,33.3836326 17.6726395,34 17.6726395,34 C22.0520711,33.5657412 22.8988876,30.0496456 23,29.8325162 C17.7042371,29.944583 14.6645451,27.1569216 14.5002374,26.8347295 Z" id="路径" fill="#FCB316"></path>
                </g>
            </g>
        </g>
    </g>
</svg>